<svg xmlns="http://www.w3.org/2000/svg" viewBox="0 0 460 95" fill="#fff"><title>hash2cash150px</title><path d="M44.68,38.32Q48.2,42.84,48.2,50V72.6a2.4,2.4,0,1,1-4.8,0V50a13.51,13.51,0,0,0-2.48-8.44q-2.48-3.24-7.76-3.24A13.76,13.76,0,0,0,22,44.16,10,10,0,0,0,20.12,50V72.6a2.4,2.4,0,1,1-4.8,0V18.2a2.4,2.4,0,1,1,4.8,0V41.64a16.77,16.77,0,0,1,6-5.64A15.6,15.6,0,0,1,34,33.8Q41.16,33.8,44.68,38.32Z"/><path d="M95.68,34.84a2.47,2.47,0,0,1,.68,1.76v36a2.4,2.4,0,1,1-4.8,0V67.24a16.76,16.76,0,0,1-6,6.08,16.24,16.24,0,0,1-8.72,2.48A17.21,17.21,0,0,1,67.2,73a19.23,19.23,0,0,1-6.72-7.68,24.16,24.16,0,0,1-2.44-11,23.6,23.6,0,0,1,2.48-10.92,19,19,0,0,1,6.76-7.56,17.87,17.87,0,0,1,18.28-.4,15.3,15.3,0,0,1,6,6.08v-5a2.47,2.47,0,0,1,.68-1.76,2.42,2.42,0,0,1,3.44,0ZM84.8,69.12A14.91,14.91,0,0,0,90,63a19.66,19.66,0,0,0,1.88-8.68A19,19,0,0,0,90,45.88a15,15,0,0,0-5.2-6,13.24,13.24,0,0,0-7.48-2.2,13.41,13.41,0,0,0-7.48,2.16,14.72,14.72,0,0,0-5.2,6,19.13,19.13,0,0,0-1.88,8.6A20,20,0,0,0,64.6,63a14.61,14.61,0,0,0,5.16,6.08,14,14,0,0,0,15,0Z"/><path d="M106,66.76a2.63,2.63,0,0,1,2.32-2.08,2.45,2.45,0,0,1,1.76.8,15,15,0,0,0,12.56,6.24,12.21,12.21,0,0,0,6.68-1.8,5.83,5.83,0,0,0,2.84-5.24,5.58,5.58,0,0,0-2.64-5,25.75,25.75,0,0,0-7.36-2.88,31.14,31.14,0,0,1-10.4-4.36A9.06,9.06,0,0,1,108,44.52a9.93,9.93,0,0,1,1.84-5.88,12.14,12.14,0,0,1,5-4A17.08,17.08,0,0,1,122,33.16a19.41,19.41,0,0,1,6.92,1.32,14.59,14.59,0,0,1,6,4.2,1.91,1.91,0,0,1,.72,1.6,2.2,2.2,0,0,1-.8,1.68,2.14,2.14,0,0,1-1.44.48,2,2,0,0,1-1.44-.64,12.64,12.64,0,0,0-4.56-3.28,14.4,14.4,0,0,0-5.68-1.12,11.47,11.47,0,0,0-6.44,1.76,5.89,5.89,0,0,0-2.68,5.28,5.75,5.75,0,0,0,2.92,4.88,30.65,30.65,0,0,0,8.12,3,38.37,38.37,0,0,1,6.88,2.32,11.57,11.57,0,0,1,4.44,3.6,10.11,10.11,0,0,1,1.72,6.16,9.78,9.78,0,0,1-4.16,8.28,16.87,16.87,0,0,1-10.32,3.08,18.76,18.76,0,0,1-15.52-7.28A3.54,3.54,0,0,1,106,66.76Z"/><path d="M175.8,38.32q3.52,4.52,3.52,11.64V72.6a2.4,2.4,0,1,1-4.8,0V50A13.51,13.51,0,0,0,172,41.52q-2.48-3.24-7.76-3.24a13.76,13.76,0,0,0-11.2,5.88,10,10,0,0,0-1.84,5.8V72.6a2.4,2.4,0,1,1-4.8,0V18.2a2.4,2.4,0,1,1,4.8,0V41.64a16.77,16.77,0,0,1,6-5.64,15.6,15.6,0,0,1,7.84-2.2Q172.28,33.8,175.8,38.32Z"/><path d="M305,34a15.2,15.2,0,0,1,5.2,2.28,4,4,0,0,1,2,3.12,2.44,2.44,0,0,1-.6,1.6,1.86,1.86,0,0,1-1.48.72,2.48,2.48,0,0,1-1.32-.32,6.5,6.5,0,0,1-1.16-1,8,8,0,0,0-2-1.52,13.36,13.36,0,0,0-3.16-.92,23.24,23.24,0,0,0-4.2-.36,15,15,0,0,0-8,2.24A15.88,15.88,0,0,0,284.48,46a17.51,17.51,0,0,0-2.08,8.48,18.42,18.42,0,0,0,2,8.64,15,15,0,0,0,13.68,8.24,17.7,17.7,0,0,0,4.6-.48,17.42,17.42,0,0,0,3.4-1.36A17.13,17.13,0,0,0,308,68a7.7,7.7,0,0,1,1.12-.84,2,2,0,0,1,1-.28,2,2,0,0,1,1.52.6,2.2,2.2,0,0,1,.56,1.56q0,1.36-1.92,2.92A16.77,16.77,0,0,1,305,74.68a23.44,23.44,0,0,1-7.44,1.12A19.68,19.68,0,0,1,287.2,73a18.83,18.83,0,0,1-7.08-7.64,23.53,23.53,0,0,1-2.52-11,22.48,22.48,0,0,1,2.56-10.68A19.66,19.66,0,0,1,298,33.16,27.83,27.83,0,0,1,305,34Z"/><path d="M356.36,34.84A2.47,2.47,0,0,1,357,36.6v36a2.4,2.4,0,1,1-4.8,0V67.24a16.76,16.76,0,0,1-6,6.08,16.24,16.24,0,0,1-8.72,2.48,17.21,17.21,0,0,1-9.64-2.8,19.23,19.23,0,0,1-6.72-7.68,24.16,24.16,0,0,1-2.44-11,23.6,23.6,0,0,1,2.48-10.92A19,19,0,0,1,328,35.88a17.87,17.87,0,0,1,18.28-.4,15.3,15.3,0,0,1,6,6.08v-5a2.47,2.47,0,0,1,.68-1.76,2.42,2.42,0,0,1,3.44,0ZM345.48,69.12a14.91,14.91,0,0,0,5.2-6.08,19.66,19.66,0,0,0,1.88-8.68,19,19,0,0,0-1.88-8.48,15,15,0,0,0-5.2-6,13.24,13.24,0,0,0-7.48-2.2,13.41,13.41,0,0,0-7.48,2.16,14.72,14.72,0,0,0-5.2,6,19.13,19.13,0,0,0-1.88,8.6A20,20,0,0,0,325.28,63a14.61,14.61,0,0,0,5.16,6.08,14,14,0,0,0,15,0Z"/><path d="M366.64,66.76A2.63,2.63,0,0,1,369,64.68a2.45,2.45,0,0,1,1.76.8,15,15,0,0,0,12.56,6.24,12.21,12.21,0,0,0,6.68-1.8,5.83,5.83,0,0,0,2.84-5.24,5.58,5.58,0,0,0-2.64-5,25.75,25.75,0,0,0-7.36-2.88,31.14,31.14,0,0,1-10.4-4.36,9.06,9.06,0,0,1-3.76-7.88,9.93,9.93,0,0,1,1.84-5.88,12.14,12.14,0,0,1,5-4,17.08,17.08,0,0,1,7.16-1.44,19.41,19.41,0,0,1,6.92,1.32,14.59,14.59,0,0,1,6,4.2,1.91,1.91,0,0,1,.72,1.6,2.2,2.2,0,0,1-.8,1.68,2.14,2.14,0,0,1-1.44.48,2,2,0,0,1-1.44-.64A12.64,12.64,0,0,0,388,38.52a14.4,14.4,0,0,0-5.68-1.12,11.47,11.47,0,0,0-6.44,1.76,5.89,5.89,0,0,0-2.68,5.28,5.75,5.75,0,0,0,2.92,4.88,30.65,30.65,0,0,0,8.12,3,38.37,38.37,0,0,1,6.88,2.32,11.57,11.57,0,0,1,4.44,3.6,10.11,10.11,0,0,1,1.72,6.16,9.78,9.78,0,0,1-4.16,8.28A16.87,16.87,0,0,1,382.8,75.8a18.76,18.76,0,0,1-15.52-7.28A3.54,3.54,0,0,1,366.64,66.76Z"/><path d="M436.48,38.32Q440,42.84,440,50V72.6a2.4,2.4,0,1,1-4.8,0V50a13.51,13.51,0,0,0-2.48-8.44q-2.48-3.24-7.76-3.24a13.76,13.76,0,0,0-11.2,5.88,10,10,0,0,0-1.84,5.8V72.6a2.4,2.4,0,1,1-4.8,0V18.2a2.4,2.4,0,1,1,4.8,0V41.64a16.76,16.76,0,0,1,6-5.64,15.6,15.6,0,0,1,7.84-2.2Q433,33.8,436.48,38.32Z"/><path d="M255.89,51.91,225,30.46a2.75,2.75,0,0,0-3,0l-3.31,2.3a1.18,1.18,0,0,0,0,2.12l26,18.09-26,18.09a1.18,1.18,0,0,0,0,2.12l3.31,2.3a2.75,2.75,0,0,0,3,0L255.89,54a1.18,1.18,0,0,0,0-2.12Z"/></svg>