<?xml version="1.0" encoding="iso-8859-1"?>
<!-- Generator: Adobe Illustrator 18.1.1, SVG Export Plug-In . SVG Version: 6.00 Build 0)  -->
<svg xmlns="http://www.w3.org/2000/svg" xmlns:xlink="http://www.w3.org/1999/xlink" version="1.1" id="Capa_1" x="0px" y="0px" viewBox="0 0 33.258 33.258" style="enable-background:new 0 0 33.258 33.258;" xml:space="preserve" width="512px" height="512px">
<g>
	<path d="M15.754,0.875v18c0,0.482,0.393,0.875,0.875,0.875s0.875-0.393,0.875-0.875v-18   C17.504,0.393,17.111,0,16.629,0S15.754,0.393,15.754,0.875z M22.406,4.288c-0.604-0.251-1.334,0.053-1.588,0.656   c-0.256,0.618,0.037,1.331,0.656,1.588c4.729,1.966,7.785,6.546,7.785,11.667c0,6.964-5.666,12.63-12.631,12.63   c-6.963,0-12.629-5.666-12.629-12.63c0-4.86,2.713-9.21,7.082-11.35c0.602-0.295,0.852-1.023,0.557-1.626   c-0.287-0.586-1.024-0.846-1.625-0.557C4.804,7.219,1.57,12.404,1.57,18.198c0,8.304,6.756,15.06,15.059,15.06   c8.305,0,15.06-6.756,15.06-15.06C31.689,12.093,28.045,6.633,22.406,4.288z" fill="#FFFFFF"/>
</g>
<g>
</g>
<g>
</g>
<g>
</g>
<g>
</g>
<g>
</g>
<g>
</g>
<g>
</g>
<g>
</g>
<g>
</g>
<g>
</g>
<g>
</g>
<g>
</g>
<g>
</g>
<g>
</g>
<g>
</g>
</svg>
