<?xml version="1.0" encoding="iso-8859-1"?>
<!-- Generator: Adobe Illustrator 19.0.0, SVG Export Plug-In . SVG Version: 6.00 Build 0)  -->
<svg xmlns="http://www.w3.org/2000/svg" xmlns:xlink="http://www.w3.org/1999/xlink" version="1.1" id="Layer_1" x="0px" y="0px" viewBox="0 0 512 512" style="enable-background:new 0 0 512 512;" xml:space="preserve" width="512px" height="512px">
<g>
	<g>
		<g>
			<path d="M480,128H64V53.333c0-5.888-4.779-10.667-10.667-10.667H10.667C4.779,42.667,0,47.445,0,53.333S4.779,64,10.667,64h32     v85.333h-32C4.779,149.333,0,154.112,0,160v85.333C0,251.221,4.779,256,10.667,256h32v21.333h-32C4.779,277.333,0,282.112,0,288     v85.333C0,379.221,4.779,384,10.667,384h32v74.667c0,5.888,4.779,10.667,10.667,10.667S64,464.555,64,458.667v-53.333h42.667v32     c0,5.888,4.779,10.667,10.667,10.667h192c5.888,0,10.667-4.779,10.667-10.667v-32h21.333v32c0,5.888,4.779,10.667,10.667,10.667     h106.667c5.888,0,10.667-4.779,10.667-10.667v-32H480c17.643,0,32-14.357,32-32V160C512,142.357,497.643,128,480,128z      M42.667,362.667H21.333v-64h21.333V362.667z M42.667,234.667H21.333v-64h21.333V234.667z M298.667,426.667H128v-21.333h170.667     V426.667z M448,426.667h-85.333v-21.333H448V426.667z M490.667,373.333c0,5.888-4.779,10.667-10.667,10.667H64V149.333h416     c5.888,0,10.667,4.779,10.667,10.667V373.333z" fill="#FFFFFF"/>
			<path d="M245.333,256c5.888,0,10.667-4.779,10.667-10.667s-4.779-10.667-10.667-10.667h-10.667V224     c0-5.888-4.779-10.667-10.667-10.667h-10.667v-10.667c0-5.888-4.779-10.667-10.667-10.667S192,196.779,192,202.667v10.667     h-21.333v-10.667c0-5.888-4.779-10.667-10.667-10.667s-10.667,4.779-10.667,10.667v10.667h-10.667     c-5.888,0-10.667,4.779-10.667,10.667v10.667h-10.667c-5.888,0-10.667,4.779-10.667,10.667S111.445,256,117.333,256H128v21.333     h-10.667c-5.888,0-10.667,4.779-10.667,10.667s4.779,10.667,10.667,10.667H128v10.667c0,5.888,4.779,10.667,10.667,10.667h10.667     v10.667c0,5.888,4.779,10.667,10.667,10.667s10.667-4.779,10.667-10.667V320H192v10.667c0,5.888,4.779,10.667,10.667,10.667     s10.667-4.779,10.667-10.667V320H224c5.888,0,10.667-4.779,10.667-10.667v-10.667h10.667c5.888,0,10.667-4.779,10.667-10.667     s-4.779-10.667-10.667-10.667h-10.667V256H245.333z M213.333,298.667h-64v-64h64V298.667z" fill="#FFFFFF"/>
			<path d="M437.333,192H288c-5.888,0-10.667,4.779-10.667,10.667s4.779,10.667,10.667,10.667h149.333     c5.888,0,10.667-4.779,10.667-10.667S443.221,192,437.333,192z" fill="#FFFFFF"/>
			<path d="M437.333,320H288c-5.888,0-10.667,4.779-10.667,10.667s4.779,10.667,10.667,10.667h149.333     c5.888,0,10.667-4.779,10.667-10.667S443.221,320,437.333,320z" fill="#FFFFFF"/>
			<path d="M437.333,234.667H288c-5.888,0-10.667,4.779-10.667,10.667S282.112,256,288,256h149.333     c5.888,0,10.667-4.779,10.667-10.667S443.221,234.667,437.333,234.667z" fill="#FFFFFF"/>
			<path d="M437.333,277.333H288c-5.888,0-10.667,4.779-10.667,10.667s4.779,10.667,10.667,10.667h149.333     c5.888,0,10.667-4.779,10.667-10.667S443.221,277.333,437.333,277.333z" fill="#FFFFFF"/>
		</g>
	</g>
</g>
<g>
</g>
<g>
</g>
<g>
</g>
<g>
</g>
<g>
</g>
<g>
</g>
<g>
</g>
<g>
</g>
<g>
</g>
<g>
</g>
<g>
</g>
<g>
</g>
<g>
</g>
<g>
</g>
<g>
</g>
</svg>
